<mxfile host="app.diagrams.net" modified="2021-03-13T19:16:36.340Z" agent="5.0 (Windows NT 10.0; Win64; x64) AppleWebKit/537.36 (KHTML, like Gecko) Chrome/89.0.4389.82 Safari/537.36" etag="1FH1T7gj8TXu0r4wbGIY" version="14.4.8" type="github">
  <diagram name="Page-1" id="e7e014a7-5840-1c2e-5031-d8a46d1fe8dd">
    <mxGraphModel dx="2842" dy="896" grid="1" gridSize="10" guides="1" tooltips="1" connect="1" arrows="1" fold="1" page="1" pageScale="1" pageWidth="1169" pageHeight="826" background="#ffffff" math="0" shadow="0">
      <root>
        <mxCell id="0" />
        <mxCell id="1" parent="0" />
        <mxCell id="jD99cRbEF5DvE2KiaCJO-42" value="Processo de Compra" style="swimlane;whiteSpace=wrap;rotation=-90;fillColor=#dae8fc;strokeColor=#6c8ebf;" vertex="1" parent="1">
          <mxGeometry x="288.75" y="-178.75" width="512.5" height="1092.5" as="geometry" />
        </mxCell>
        <mxCell id="jD99cRbEF5DvE2KiaCJO-55" style="edgeStyle=orthogonalEdgeStyle;rounded=0;orthogonalLoop=1;jettySize=auto;html=1;exitX=1;exitY=0.5;exitDx=0;exitDy=0;fontSize=9;fontColor=#999999;labelBorderColor=none;fillColor=#dae8fc;labelBackgroundColor=none;strokeColor=#999999;" edge="1" parent="jD99cRbEF5DvE2KiaCJO-42" source="jD99cRbEF5DvE2KiaCJO-46" target="jD99cRbEF5DvE2KiaCJO-54">
          <mxGeometry relative="1" as="geometry" />
        </mxCell>
        <mxCell id="jD99cRbEF5DvE2KiaCJO-46" value="" style="ellipse;whiteSpace=wrap;html=1;fontSize=9;labelBorderColor=none;fillColor=#dae8fc;labelBackgroundColor=none;strokeColor=#999999;" vertex="1" parent="jD99cRbEF5DvE2KiaCJO-42">
          <mxGeometry x="-228" y="343.87" width="37.5" height="37.5" as="geometry" />
        </mxCell>
        <mxCell id="jD99cRbEF5DvE2KiaCJO-47" value="&lt;font style=&quot;font-size: 9px&quot;&gt;Inicio do evento de compra&lt;/font&gt;" style="text;html=1;align=center;verticalAlign=middle;whiteSpace=wrap;rounded=0;fontSize=9;labelBorderColor=none;fontColor=#999999;labelBackgroundColor=none;" vertex="1" parent="jD99cRbEF5DvE2KiaCJO-42">
          <mxGeometry x="-246.75" y="382.62" width="80" height="20" as="geometry" />
        </mxCell>
        <mxCell id="jD99cRbEF5DvE2KiaCJO-57" style="edgeStyle=orthogonalEdgeStyle;rounded=0;orthogonalLoop=1;jettySize=auto;html=1;exitX=1;exitY=0.5;exitDx=0;exitDy=0;entryX=0;entryY=0.5;entryDx=0;entryDy=0;fontSize=9;fontColor=#999999;labelBorderColor=none;fillColor=#dae8fc;labelBackgroundColor=none;strokeColor=#999999;" edge="1" parent="jD99cRbEF5DvE2KiaCJO-42" source="jD99cRbEF5DvE2KiaCJO-54" target="jD99cRbEF5DvE2KiaCJO-56">
          <mxGeometry relative="1" as="geometry" />
        </mxCell>
        <mxCell id="jD99cRbEF5DvE2KiaCJO-54" value="Cliente busca o jogo" style="rounded=1;whiteSpace=wrap;html=1;fontSize=9;labelBorderColor=none;fillColor=#dae8fc;labelBackgroundColor=none;strokeColor=#999999;" vertex="1" parent="jD99cRbEF5DvE2KiaCJO-42">
          <mxGeometry x="-89.25" y="332.62" width="97.5" height="60" as="geometry" />
        </mxCell>
        <mxCell id="jD99cRbEF5DvE2KiaCJO-59" style="edgeStyle=orthogonalEdgeStyle;rounded=0;orthogonalLoop=1;jettySize=auto;html=1;exitX=1;exitY=0.5;exitDx=0;exitDy=0;entryX=0;entryY=0.5;entryDx=0;entryDy=0;fontSize=9;fontColor=#999999;labelBorderColor=none;fillColor=#dae8fc;labelBackgroundColor=none;strokeColor=#999999;" edge="1" parent="jD99cRbEF5DvE2KiaCJO-42" source="jD99cRbEF5DvE2KiaCJO-56" target="jD99cRbEF5DvE2KiaCJO-58">
          <mxGeometry relative="1" as="geometry" />
        </mxCell>
        <mxCell id="jD99cRbEF5DvE2KiaCJO-56" value="Cliente coloca o jogo no carrinho de compras" style="rounded=1;whiteSpace=wrap;html=1;fontSize=9;labelBorderColor=none;fillColor=#dae8fc;labelBackgroundColor=none;strokeColor=#999999;" vertex="1" parent="jD99cRbEF5DvE2KiaCJO-42">
          <mxGeometry x="68.25" y="332.62" width="97.5" height="60" as="geometry" />
        </mxCell>
        <mxCell id="jD99cRbEF5DvE2KiaCJO-62" style="edgeStyle=orthogonalEdgeStyle;rounded=0;orthogonalLoop=1;jettySize=auto;html=1;exitX=1;exitY=0.5;exitDx=0;exitDy=0;entryX=0;entryY=0.5;entryDx=0;entryDy=0;fontSize=9;fontColor=#999999;labelBorderColor=none;fillColor=#dae8fc;labelBackgroundColor=none;strokeColor=#999999;" edge="1" parent="jD99cRbEF5DvE2KiaCJO-42" source="jD99cRbEF5DvE2KiaCJO-58" target="jD99cRbEF5DvE2KiaCJO-61">
          <mxGeometry relative="1" as="geometry" />
        </mxCell>
        <mxCell id="jD99cRbEF5DvE2KiaCJO-58" value="" style="rhombus;whiteSpace=wrap;html=1;fontSize=9;labelBorderColor=none;fillColor=#dae8fc;labelBackgroundColor=none;strokeColor=#999999;" vertex="1" parent="jD99cRbEF5DvE2KiaCJO-42">
          <mxGeometry x="215.75" y="336.62" width="50" height="52" as="geometry" />
        </mxCell>
        <mxCell id="jD99cRbEF5DvE2KiaCJO-60" value="Cliente deseja finalizar a compra?" style="text;html=1;align=center;verticalAlign=middle;whiteSpace=wrap;rounded=0;fontSize=9;labelBorderColor=none;fontColor=#999999;labelBackgroundColor=none;" vertex="1" parent="jD99cRbEF5DvE2KiaCJO-42">
          <mxGeometry x="245.75" y="332.62" width="110" height="20" as="geometry" />
        </mxCell>
        <mxCell id="jD99cRbEF5DvE2KiaCJO-64" style="edgeStyle=orthogonalEdgeStyle;rounded=0;orthogonalLoop=1;jettySize=auto;html=1;exitX=1;exitY=0.5;exitDx=0;exitDy=0;entryX=0;entryY=0.5;entryDx=0;entryDy=0;fontSize=9;fontColor=#999999;labelBorderColor=none;fillColor=#dae8fc;labelBackgroundColor=none;strokeColor=#999999;" edge="1" parent="jD99cRbEF5DvE2KiaCJO-42" source="jD99cRbEF5DvE2KiaCJO-61" target="jD99cRbEF5DvE2KiaCJO-63">
          <mxGeometry relative="1" as="geometry" />
        </mxCell>
        <mxCell id="jD99cRbEF5DvE2KiaCJO-61" value="Cliente finaliza a compra" style="rounded=1;whiteSpace=wrap;html=1;fontSize=9;labelBorderColor=none;fillColor=#dae8fc;labelBackgroundColor=none;strokeColor=#999999;" vertex="1" parent="jD99cRbEF5DvE2KiaCJO-42">
          <mxGeometry x="357" y="332.62" width="97.5" height="60" as="geometry" />
        </mxCell>
        <mxCell id="jD99cRbEF5DvE2KiaCJO-76" style="edgeStyle=orthogonalEdgeStyle;rounded=0;orthogonalLoop=1;jettySize=auto;html=1;exitX=0.5;exitY=1;exitDx=0;exitDy=0;entryX=0.5;entryY=0;entryDx=0;entryDy=0;fontSize=9;fontColor=#999999;labelBorderColor=none;fillColor=#dae8fc;labelBackgroundColor=none;strokeColor=#999999;" edge="1" parent="jD99cRbEF5DvE2KiaCJO-42" source="jD99cRbEF5DvE2KiaCJO-63" target="jD99cRbEF5DvE2KiaCJO-74">
          <mxGeometry relative="1" as="geometry" />
        </mxCell>
        <mxCell id="jD99cRbEF5DvE2KiaCJO-63" value="" style="rhombus;whiteSpace=wrap;html=1;fontSize=9;labelBorderColor=none;fillColor=#dae8fc;labelBackgroundColor=none;strokeColor=#999999;" vertex="1" parent="jD99cRbEF5DvE2KiaCJO-42">
          <mxGeometry x="500.75" y="336.62" width="50" height="52" as="geometry" />
        </mxCell>
        <mxCell id="jD99cRbEF5DvE2KiaCJO-68" value="Sim" style="text;html=1;align=center;verticalAlign=middle;whiteSpace=wrap;rounded=0;fontSize=9;labelBorderColor=none;fontColor=#999999;labelBackgroundColor=none;" vertex="1" parent="jD99cRbEF5DvE2KiaCJO-42">
          <mxGeometry x="534.9200000000001" y="368.62" width="110" height="20" as="geometry" />
        </mxCell>
        <mxCell id="jD99cRbEF5DvE2KiaCJO-69" value="Cliente Insere cupom de desconto" style="rounded=1;whiteSpace=wrap;html=1;fontSize=9;labelBorderColor=none;fillColor=#dae8fc;labelBackgroundColor=none;strokeColor=#999999;" vertex="1" parent="jD99cRbEF5DvE2KiaCJO-42">
          <mxGeometry x="630.75" y="332.62" width="97.5" height="60" as="geometry" />
        </mxCell>
        <mxCell id="jD99cRbEF5DvE2KiaCJO-70" value="Cliente deseja inserir &lt;br&gt;cupom de desconto?" style="text;html=1;align=center;verticalAlign=middle;resizable=0;points=[];autosize=1;fontSize=9;labelBorderColor=none;fontColor=#999999;labelBackgroundColor=none;" vertex="1" parent="jD99cRbEF5DvE2KiaCJO-42">
          <mxGeometry x="534.9200000000001" y="327.62" width="100" height="30" as="geometry" />
        </mxCell>
        <mxCell id="jD99cRbEF5DvE2KiaCJO-83" style="edgeStyle=orthogonalEdgeStyle;rounded=0;orthogonalLoop=1;jettySize=auto;html=1;exitX=0.5;exitY=1;exitDx=0;exitDy=0;entryX=0.5;entryY=1;entryDx=0;entryDy=0;fontSize=9;fontColor=#999999;labelBorderColor=none;fillColor=#dae8fc;labelBackgroundColor=none;strokeColor=#999999;" edge="1" parent="jD99cRbEF5DvE2KiaCJO-42" source="jD99cRbEF5DvE2KiaCJO-74" target="jD99cRbEF5DvE2KiaCJO-81">
          <mxGeometry relative="1" as="geometry">
            <Array as="points">
              <mxPoint x="525.75" y="562.62" />
              <mxPoint x="143.75" y="562.62" />
            </Array>
          </mxGeometry>
        </mxCell>
        <mxCell id="jD99cRbEF5DvE2KiaCJO-74" value="" style="rhombus;whiteSpace=wrap;html=1;fontSize=9;labelBorderColor=none;fillColor=#dae8fc;labelBackgroundColor=none;strokeColor=#999999;" vertex="1" parent="jD99cRbEF5DvE2KiaCJO-42">
          <mxGeometry x="500.75" y="472.62" width="50" height="52" as="geometry" />
        </mxCell>
        <mxCell id="jD99cRbEF5DvE2KiaCJO-73" style="edgeStyle=orthogonalEdgeStyle;rounded=0;orthogonalLoop=1;jettySize=auto;html=1;exitX=0.5;exitY=1;exitDx=0;exitDy=0;fontSize=9;entryX=1;entryY=0.5;entryDx=0;entryDy=0;fontColor=#999999;labelBorderColor=none;fillColor=#dae8fc;labelBackgroundColor=none;strokeColor=#999999;" edge="1" parent="jD99cRbEF5DvE2KiaCJO-42" source="jD99cRbEF5DvE2KiaCJO-69" target="jD99cRbEF5DvE2KiaCJO-74">
          <mxGeometry relative="1" as="geometry">
            <mxPoint x="540.75" y="520.12" as="targetPoint" />
            <Array as="points">
              <mxPoint x="680" y="498.62" />
            </Array>
          </mxGeometry>
        </mxCell>
        <mxCell id="jD99cRbEF5DvE2KiaCJO-77" value="NÃ£o" style="text;html=1;align=center;verticalAlign=middle;resizable=0;points=[];autosize=1;fontSize=9;labelBorderColor=none;fontColor=#999999;labelBackgroundColor=none;" vertex="1" parent="jD99cRbEF5DvE2KiaCJO-42">
          <mxGeometry x="534.92" y="417.62" width="30" height="20" as="geometry" />
        </mxCell>
        <mxCell id="jD99cRbEF5DvE2KiaCJO-79" value="Cliente deseja inserir um &lt;br&gt;novo mÃ©todo de pagamento?" style="text;html=1;align=center;verticalAlign=middle;resizable=0;points=[];autosize=1;fontSize=9;labelBorderColor=none;fontColor=#999999;labelBackgroundColor=none;" vertex="1" parent="jD99cRbEF5DvE2KiaCJO-42">
          <mxGeometry x="370.75" y="458.62" width="130" height="30" as="geometry" />
        </mxCell>
        <mxCell id="jD99cRbEF5DvE2KiaCJO-82" style="edgeStyle=orthogonalEdgeStyle;rounded=0;orthogonalLoop=1;jettySize=auto;html=1;exitX=0;exitY=0.5;exitDx=0;exitDy=0;entryX=1;entryY=0.5;entryDx=0;entryDy=0;fontSize=9;fontColor=#999999;labelBorderColor=none;fillColor=#dae8fc;labelBackgroundColor=none;strokeColor=#999999;" edge="1" parent="jD99cRbEF5DvE2KiaCJO-42" source="jD99cRbEF5DvE2KiaCJO-80" target="jD99cRbEF5DvE2KiaCJO-81">
          <mxGeometry relative="1" as="geometry" />
        </mxCell>
        <mxCell id="jD99cRbEF5DvE2KiaCJO-80" value="Cliente adiciona um novo mÃ©todo de pagamento." style="rounded=1;whiteSpace=wrap;html=1;fontSize=9;labelBorderColor=none;fillColor=#dae8fc;labelBackgroundColor=none;strokeColor=#999999;" vertex="1" parent="jD99cRbEF5DvE2KiaCJO-42">
          <mxGeometry x="265.75" y="468.62" width="97.5" height="60" as="geometry" />
        </mxCell>
        <mxCell id="jD99cRbEF5DvE2KiaCJO-78" style="edgeStyle=orthogonalEdgeStyle;rounded=0;orthogonalLoop=1;jettySize=auto;html=1;exitX=0;exitY=0.5;exitDx=0;exitDy=0;fontSize=9;entryX=1;entryY=0.5;entryDx=0;entryDy=0;fontColor=#999999;labelBorderColor=none;fillColor=#dae8fc;labelBackgroundColor=none;strokeColor=#999999;" edge="1" parent="jD99cRbEF5DvE2KiaCJO-42" source="jD99cRbEF5DvE2KiaCJO-74" target="jD99cRbEF5DvE2KiaCJO-80">
          <mxGeometry relative="1" as="geometry">
            <mxPoint x="384.75" y="498.62" as="targetPoint" />
          </mxGeometry>
        </mxCell>
        <mxCell id="jD99cRbEF5DvE2KiaCJO-87" style="edgeStyle=orthogonalEdgeStyle;rounded=0;orthogonalLoop=1;jettySize=auto;html=1;exitX=0;exitY=0.5;exitDx=0;exitDy=0;entryX=1;entryY=0.5;entryDx=0;entryDy=0;fontSize=9;fontColor=#999999;labelBorderColor=none;fillColor=#dae8fc;labelBackgroundColor=none;strokeColor=#999999;" edge="1" parent="jD99cRbEF5DvE2KiaCJO-42" source="jD99cRbEF5DvE2KiaCJO-81" target="jD99cRbEF5DvE2KiaCJO-86">
          <mxGeometry relative="1" as="geometry" />
        </mxCell>
        <mxCell id="jD99cRbEF5DvE2KiaCJO-81" value="Cliente seleciona o mÃ©todo de pagamento" style="rounded=1;whiteSpace=wrap;html=1;fontSize=9;labelBorderColor=none;fillColor=#dae8fc;labelBackgroundColor=none;strokeColor=#999999;" vertex="1" parent="jD99cRbEF5DvE2KiaCJO-42">
          <mxGeometry x="94.75" y="468.62" width="97.5" height="60" as="geometry" />
        </mxCell>
        <mxCell id="jD99cRbEF5DvE2KiaCJO-84" value="Sim" style="text;html=1;align=center;verticalAlign=middle;whiteSpace=wrap;rounded=0;fontSize=9;labelBorderColor=none;fontColor=#999999;labelBackgroundColor=none;" vertex="1" parent="jD99cRbEF5DvE2KiaCJO-42">
          <mxGeometry x="380.7500000000001" y="504.62" width="110" height="20" as="geometry" />
        </mxCell>
        <mxCell id="jD99cRbEF5DvE2KiaCJO-85" value="NÃ£o" style="text;html=1;align=center;verticalAlign=middle;resizable=0;points=[];autosize=1;fontSize=9;labelBorderColor=none;fontColor=#999999;labelBackgroundColor=none;" vertex="1" parent="jD99cRbEF5DvE2KiaCJO-42">
          <mxGeometry x="299.5" y="603.12" width="30" height="20" as="geometry" />
        </mxCell>
        <mxCell id="jD99cRbEF5DvE2KiaCJO-105" style="edgeStyle=orthogonalEdgeStyle;rounded=0;orthogonalLoop=1;jettySize=auto;html=1;exitX=0;exitY=0.5;exitDx=0;exitDy=0;fontSize=9;fontColor=#999999;labelBorderColor=none;fillColor=#dae8fc;labelBackgroundColor=none;strokeColor=#999999;" edge="1" parent="jD99cRbEF5DvE2KiaCJO-42" source="jD99cRbEF5DvE2KiaCJO-86" target="jD99cRbEF5DvE2KiaCJO-88">
          <mxGeometry relative="1" as="geometry" />
        </mxCell>
        <mxCell id="jD99cRbEF5DvE2KiaCJO-86" value="Cliente finaliza o pedido" style="rounded=1;whiteSpace=wrap;html=1;fontSize=9;labelBorderColor=none;fillColor=#dae8fc;labelBackgroundColor=none;strokeColor=#999999;" vertex="1" parent="jD99cRbEF5DvE2KiaCJO-42">
          <mxGeometry x="-39.25" y="468.62" width="97.5" height="60" as="geometry" />
        </mxCell>
        <mxCell id="jD99cRbEF5DvE2KiaCJO-67" style="edgeStyle=orthogonalEdgeStyle;rounded=0;orthogonalLoop=1;jettySize=auto;html=1;exitX=1;exitY=0.5;exitDx=0;exitDy=0;fontSize=9;entryX=0;entryY=0.5;entryDx=0;entryDy=0;fontColor=#999999;labelBorderColor=none;fillColor=#dae8fc;labelBackgroundColor=none;strokeColor=#999999;" edge="1" parent="jD99cRbEF5DvE2KiaCJO-42" source="jD99cRbEF5DvE2KiaCJO-63" target="jD99cRbEF5DvE2KiaCJO-69">
          <mxGeometry relative="1" as="geometry">
            <mxPoint x="610.75" y="377.54857142857145" as="targetPoint" />
          </mxGeometry>
        </mxCell>
        <mxCell id="jD99cRbEF5DvE2KiaCJO-90" style="edgeStyle=orthogonalEdgeStyle;rounded=0;orthogonalLoop=1;jettySize=auto;html=1;exitX=0;exitY=0.5;exitDx=0;exitDy=0;entryX=1;entryY=0.5;entryDx=0;entryDy=0;fontSize=9;fontColor=#999999;labelBorderColor=none;fillColor=#dae8fc;labelBackgroundColor=none;strokeColor=#999999;" edge="1" parent="jD99cRbEF5DvE2KiaCJO-42" source="jD99cRbEF5DvE2KiaCJO-88" target="jD99cRbEF5DvE2KiaCJO-89">
          <mxGeometry relative="1" as="geometry" />
        </mxCell>
        <mxCell id="jD99cRbEF5DvE2KiaCJO-88" value="Sistema disponibiliza as keys para o usuÃ¡rio." style="rounded=1;whiteSpace=wrap;html=1;fontSize=9;labelBorderColor=none;fillColor=#dae8fc;labelBackgroundColor=none;strokeColor=#999999;" vertex="1" parent="jD99cRbEF5DvE2KiaCJO-42">
          <mxGeometry x="-169.25" y="468.62" width="97.5" height="60" as="geometry" />
        </mxCell>
        <mxCell id="jD99cRbEF5DvE2KiaCJO-89" value="" style="ellipse;html=1;shape=endState;fillColor=#dae8fc;fontSize=9;labelBorderColor=none;labelBackgroundColor=none;strokeColor=#999999;" vertex="1" parent="jD99cRbEF5DvE2KiaCJO-42">
          <mxGeometry x="-230.5" y="483.62" width="30" height="30" as="geometry" />
        </mxCell>
        <mxCell id="jD99cRbEF5DvE2KiaCJO-91" value="Fim do evento &lt;br&gt;de compra" style="text;html=1;align=center;verticalAlign=middle;resizable=0;points=[];autosize=1;fontSize=9;labelBorderColor=none;fontColor=#999999;labelBackgroundColor=none;" vertex="1" parent="jD99cRbEF5DvE2KiaCJO-42">
          <mxGeometry x="-246.75" y="513.62" width="70" height="30" as="geometry" />
        </mxCell>
        <mxCell id="jD99cRbEF5DvE2KiaCJO-95" style="edgeStyle=orthogonalEdgeStyle;rounded=0;orthogonalLoop=1;jettySize=auto;html=1;exitX=1;exitY=0.5;exitDx=0;exitDy=0;fontSize=9;fontColor=#999999;labelBorderColor=none;fillColor=#dae8fc;labelBackgroundColor=none;strokeColor=#999999;" edge="1" parent="jD99cRbEF5DvE2KiaCJO-42" source="jD99cRbEF5DvE2KiaCJO-92" target="jD99cRbEF5DvE2KiaCJO-94">
          <mxGeometry relative="1" as="geometry" />
        </mxCell>
        <mxCell id="jD99cRbEF5DvE2KiaCJO-92" value="" style="ellipse;whiteSpace=wrap;html=1;fontSize=9;labelBorderColor=none;fillColor=#dae8fc;labelBackgroundColor=none;strokeColor=#999999;" vertex="1" parent="jD99cRbEF5DvE2KiaCJO-42">
          <mxGeometry x="-228" y="634.37" width="37.5" height="37.5" as="geometry" />
        </mxCell>
        <mxCell id="jD99cRbEF5DvE2KiaCJO-93" value="Inicio de processo de anÃºncio" style="text;html=1;align=center;verticalAlign=middle;whiteSpace=wrap;rounded=0;fontSize=9;labelBorderColor=none;fontColor=#999999;labelBackgroundColor=none;" vertex="1" parent="jD99cRbEF5DvE2KiaCJO-42">
          <mxGeometry x="-246.75" y="673.12" width="80" height="20" as="geometry" />
        </mxCell>
        <mxCell id="jD99cRbEF5DvE2KiaCJO-98" style="edgeStyle=orthogonalEdgeStyle;rounded=0;orthogonalLoop=1;jettySize=auto;html=1;exitX=1;exitY=0.5;exitDx=0;exitDy=0;entryX=0;entryY=0.5;entryDx=0;entryDy=0;fontSize=9;fontColor=#999999;labelBorderColor=none;fillColor=#dae8fc;labelBackgroundColor=none;strokeColor=#999999;" edge="1" parent="jD99cRbEF5DvE2KiaCJO-42" source="jD99cRbEF5DvE2KiaCJO-94" target="jD99cRbEF5DvE2KiaCJO-97">
          <mxGeometry relative="1" as="geometry" />
        </mxCell>
        <mxCell id="jD99cRbEF5DvE2KiaCJO-94" value="Anunciante busca o jogo que vai anunciar" style="rounded=1;whiteSpace=wrap;html=1;fontSize=9;labelBorderColor=none;fillColor=#dae8fc;labelBackgroundColor=none;strokeColor=#999999;" vertex="1" parent="jD99cRbEF5DvE2KiaCJO-42">
          <mxGeometry x="-116.75" y="623.12" width="97.5" height="60" as="geometry" />
        </mxCell>
        <mxCell id="jD99cRbEF5DvE2KiaCJO-101" style="edgeStyle=orthogonalEdgeStyle;rounded=0;orthogonalLoop=1;jettySize=auto;html=1;exitX=1;exitY=0.5;exitDx=0;exitDy=0;entryX=0;entryY=0.5;entryDx=0;entryDy=0;fontSize=9;fontColor=#999999;labelBorderColor=none;fillColor=#dae8fc;labelBackgroundColor=none;strokeColor=#999999;" edge="1" parent="jD99cRbEF5DvE2KiaCJO-42" source="jD99cRbEF5DvE2KiaCJO-97" target="jD99cRbEF5DvE2KiaCJO-99">
          <mxGeometry relative="1" as="geometry" />
        </mxCell>
        <mxCell id="jD99cRbEF5DvE2KiaCJO-97" value="Cliente cria uma proposta de anÃºncio" style="rounded=1;whiteSpace=wrap;html=1;fontSize=9;labelBorderColor=none;fillColor=#dae8fc;labelBackgroundColor=none;strokeColor=#999999;" vertex="1" parent="jD99cRbEF5DvE2KiaCJO-42">
          <mxGeometry x="33.25" y="623.12" width="97.5" height="60" as="geometry" />
        </mxCell>
        <mxCell id="jD99cRbEF5DvE2KiaCJO-106" style="edgeStyle=orthogonalEdgeStyle;rounded=0;orthogonalLoop=1;jettySize=auto;html=1;exitX=1;exitY=0.5;exitDx=0;exitDy=0;fontSize=9;fontColor=#999999;labelBorderColor=none;fillColor=#dae8fc;labelBackgroundColor=none;strokeColor=#999999;" edge="1" parent="jD99cRbEF5DvE2KiaCJO-42" source="jD99cRbEF5DvE2KiaCJO-99" target="jD99cRbEF5DvE2KiaCJO-104">
          <mxGeometry relative="1" as="geometry" />
        </mxCell>
        <mxCell id="jD99cRbEF5DvE2KiaCJO-108" style="edgeStyle=orthogonalEdgeStyle;rounded=0;orthogonalLoop=1;jettySize=auto;html=1;exitX=0.5;exitY=1;exitDx=0;exitDy=0;entryX=0.5;entryY=0;entryDx=0;entryDy=0;fontSize=9;fontColor=#999999;labelBorderColor=none;fillColor=#dae8fc;labelBackgroundColor=none;strokeColor=#999999;" edge="1" parent="jD99cRbEF5DvE2KiaCJO-42" source="jD99cRbEF5DvE2KiaCJO-99" target="jD99cRbEF5DvE2KiaCJO-107">
          <mxGeometry relative="1" as="geometry" />
        </mxCell>
        <mxCell id="jD99cRbEF5DvE2KiaCJO-99" value="" style="rhombus;whiteSpace=wrap;html=1;fontSize=9;labelBorderColor=none;fillColor=#dae8fc;labelBackgroundColor=none;strokeColor=#999999;" vertex="1" parent="jD99cRbEF5DvE2KiaCJO-42">
          <mxGeometry x="194.75" y="627.12" width="50" height="52" as="geometry" />
        </mxCell>
        <mxCell id="jD99cRbEF5DvE2KiaCJO-102" value="O anunciante faz parte do grupo&amp;nbsp;ÏStore++?" style="text;html=1;align=center;verticalAlign=middle;whiteSpace=wrap;rounded=0;fontSize=9;labelBorderColor=none;fontColor=#999999;labelBackgroundColor=none;" vertex="1" parent="jD99cRbEF5DvE2KiaCJO-42">
          <mxGeometry x="248.25" y="623.12" width="110" height="20" as="geometry" />
        </mxCell>
        <mxCell id="jD99cRbEF5DvE2KiaCJO-114" style="edgeStyle=orthogonalEdgeStyle;rounded=0;orthogonalLoop=1;jettySize=auto;html=1;exitX=1;exitY=0.5;exitDx=0;exitDy=0;entryX=0;entryY=0.5;entryDx=0;entryDy=0;fontSize=9;fontColor=#999999;labelBorderColor=none;fillColor=#dae8fc;labelBackgroundColor=none;strokeColor=#999999;" edge="1" parent="jD99cRbEF5DvE2KiaCJO-42" source="jD99cRbEF5DvE2KiaCJO-104" target="jD99cRbEF5DvE2KiaCJO-113">
          <mxGeometry relative="1" as="geometry" />
        </mxCell>
        <mxCell id="jD99cRbEF5DvE2KiaCJO-104" value="O anuncio Ã© adicionado ao sistema" style="rounded=1;whiteSpace=wrap;html=1;fontSize=9;labelBorderColor=none;fillColor=#dae8fc;labelBackgroundColor=none;strokeColor=#999999;" vertex="1" parent="jD99cRbEF5DvE2KiaCJO-42">
          <mxGeometry x="383.25" y="623.12" width="97.5" height="60" as="geometry" />
        </mxCell>
        <mxCell id="jD99cRbEF5DvE2KiaCJO-109" style="edgeStyle=orthogonalEdgeStyle;rounded=0;orthogonalLoop=1;jettySize=auto;html=1;exitX=1;exitY=0.5;exitDx=0;exitDy=0;entryX=0.5;entryY=1;entryDx=0;entryDy=0;fontSize=9;fontColor=#999999;labelBorderColor=none;fillColor=#dae8fc;labelBackgroundColor=none;strokeColor=#999999;" edge="1" parent="jD99cRbEF5DvE2KiaCJO-42" source="jD99cRbEF5DvE2KiaCJO-107" target="jD99cRbEF5DvE2KiaCJO-104">
          <mxGeometry relative="1" as="geometry" />
        </mxCell>
        <mxCell id="jD99cRbEF5DvE2KiaCJO-107" value="Ã cobrada a taxa de anÃºncio ao anunciante" style="rounded=1;whiteSpace=wrap;html=1;fontSize=9;labelBorderColor=none;fillColor=#dae8fc;labelBackgroundColor=none;strokeColor=#999999;" vertex="1" parent="jD99cRbEF5DvE2KiaCJO-42">
          <mxGeometry x="171" y="704.37" width="97.5" height="60" as="geometry" />
        </mxCell>
        <mxCell id="jD99cRbEF5DvE2KiaCJO-112" value="NÃ£o" style="text;html=1;align=center;verticalAlign=middle;resizable=0;points=[];autosize=1;fontSize=9;labelBorderColor=none;fontColor=#999999;labelBackgroundColor=none;" vertex="1" parent="jD99cRbEF5DvE2KiaCJO-42">
          <mxGeometry x="323.25" y="734.37" width="30" height="20" as="geometry" />
        </mxCell>
        <mxCell id="jD99cRbEF5DvE2KiaCJO-111" value="Sim" style="text;html=1;align=center;verticalAlign=middle;resizable=0;points=[];autosize=1;fontSize=9;labelBorderColor=none;fontColor=#999999;labelBackgroundColor=none;" vertex="1" parent="jD99cRbEF5DvE2KiaCJO-42">
          <mxGeometry x="288.25" y="651.87" width="30" height="20" as="geometry" />
        </mxCell>
        <mxCell id="jD99cRbEF5DvE2KiaCJO-113" value="" style="ellipse;html=1;shape=endState;fillColor=#dae8fc;fontSize=9;labelBorderColor=none;labelBackgroundColor=none;strokeColor=#999999;" vertex="1" parent="jD99cRbEF5DvE2KiaCJO-42">
          <mxGeometry x="572.42" y="638.12" width="30" height="30" as="geometry" />
        </mxCell>
        <mxCell id="jD99cRbEF5DvE2KiaCJO-115" value="Fim do evento &lt;br&gt;de anÃºncio." style="text;html=1;align=center;verticalAlign=middle;resizable=0;points=[];autosize=1;fontSize=9;labelBorderColor=none;fontColor=#999999;labelBackgroundColor=none;" vertex="1" parent="jD99cRbEF5DvE2KiaCJO-42">
          <mxGeometry x="557.42" y="671.87" width="70" height="30" as="geometry" />
        </mxCell>
      </root>
    </mxGraphModel>
  </diagram>
</mxfile>
